<svg width="174" height="26" viewBox="0 0 174 26" fill="none" xmlns="http://www.w3.org/2000/svg">
<path fill-rule="evenodd" clip-rule="evenodd" d="M13.3081 23.0961C13.722 22.7447 14.1689 22.3762 14.6654 21.9748V24.4685L22.0147 24.4688V8.28457C22.0147 5.5063 21.0878 3.41424 19.2174 2.04185C17.3635 0.702933 14.4337 0 10.3949 0C8.72313 0 7.10099 0.150682 5.47885 0.451886C3.85672 0.753132 2.69804 0.987401 1.96974 1.22177V6.96239H2.56563C3.69119 6.47704 4.81676 6.04185 5.95887 5.75736C7.11754 5.42278 8.11069 5.25526 8.98796 5.25526C10.908 5.25526 12.3316 5.5063 13.2916 6.00841C14.2351 6.49376 14.7317 7.41428 14.7317 8.70299V8.85335C12.5964 8.97054 10.6267 9.20477 8.77278 9.43913C6.95201 9.69021 5.36298 10.1421 4.03879 10.7781C2.7477 11.4141 1.75456 12.2843 1.0428 13.3722C0.347594 14.4433 0 15.8659 0 17.6568C0 19.8158 0.695201 21.5564 2.06905 22.979C3.42635 24.3681 5.1478 25.1045 7.21686 25.1045C8.34242 25.1045 9.20314 25.021 9.81559 24.8367C10.4611 24.7028 11.0736 24.4516 11.7357 24.1003C12.4143 23.7489 12.9275 23.4475 13.3081 23.0961ZM14.6654 13.322V18.2593C14.1358 18.7781 13.5399 19.213 12.8447 19.4808C12.1991 19.8157 11.537 19.9159 10.9411 19.9159C9.76593 19.9159 8.88865 19.7323 8.30931 19.3137C7.72998 18.8952 7.41548 18.1252 7.41548 17.0205C7.41548 16.2841 7.6141 15.6818 7.97827 15.2132C8.30931 14.7446 8.80589 14.41 9.45143 14.1923C10.1797 13.9078 10.9412 13.7568 11.686 13.6732C12.4309 13.5729 13.424 13.4557 14.6654 13.322ZM33.1636 24.6004C34.7989 25.0717 36.6365 25.3318 38.609 25.3318V25.3321C39.6543 25.3321 40.4804 25.267 41.121 25.153C41.2409 25.1311 41.3639 25.1099 41.4893 25.0881L41.4902 25.088L41.4906 25.0879L41.4906 25.0879L41.4907 25.0879C42.0179 24.9967 42.5894 24.8979 43.1609 24.7142C43.7679 24.5681 44.3074 24.3729 44.8637 24.1615C45.1431 24.0426 45.4025 23.9316 45.6438 23.8283L45.645 23.8278C45.8982 23.7193 46.1316 23.6195 46.3473 23.5279V17.384H45.3863C45.1672 17.6278 44.8468 17.9042 44.4928 18.1967C44.1388 18.5217 43.7004 18.7979 43.1778 19.0904C42.6889 19.3667 42.082 19.6267 41.3907 19.838C40.6658 20.017 39.8229 20.1306 38.8788 20.1306C37.0074 20.1306 35.5407 19.5617 34.428 18.4402C33.3153 17.3025 32.7421 15.5634 32.7421 13.2715C32.7421 11.1098 33.2985 9.38692 34.3268 8.11912C35.3721 6.81883 36.8557 6.18493 38.7607 6.18493C39.6037 6.18493 40.3624 6.2986 41.0704 6.49375C41.1756 6.53112 41.2808 6.56762 41.3856 6.60396L41.3857 6.60398L41.3858 6.60401C41.9189 6.78894 42.4403 6.96984 42.8912 7.24142C43.4138 7.50148 43.8522 7.7942 44.3073 8.15163C44.7288 8.44419 45.1166 8.75304 45.3863 9.02933H46.3473V2.86917C45.0154 2.21903 43.7004 1.74764 42.3686 1.47135C41.0704 1.1627 39.7217 0.999997 38.4067 0.999997C36.6534 0.999997 34.9675 1.22755 33.3659 1.69891C31.7306 2.15403 30.3313 2.86917 29.1343 3.82814C27.8699 4.81961 26.9089 6.08738 26.184 7.63151C25.4422 9.20809 25.105 11.0448 25.105 13.2715C25.105 15.3033 25.4253 17.1074 26.0997 18.619C26.774 20.1144 27.7013 21.3659 28.9151 22.3899C30.129 23.3814 31.5451 24.1128 33.1636 24.6004ZM91.4766 12.6929V12.5435H90.1978V12.6929C90.1978 13.4546 90.3413 14.0566 90.6284 14.499C90.9155 14.9385 91.4795 15.1582 92.3203 15.1582C93.1611 15.1582 93.7427 14.8857 94.0649 14.3408C94.2554 14.0186 94.3506 13.582 94.3506 13.0312V8.52246H92.9971V13.0532C92.9971 13.3667 92.9663 13.5894 92.9048 13.7212C92.8022 13.9438 92.5913 14.0552 92.272 14.0552C91.9497 14.0552 91.7388 13.9541 91.6392 13.752C91.5425 13.5469 91.4883 13.1938 91.4766 12.6929ZM97.0928 8.52246H95.6733V15H96.9346V10.3989L99.5801 15H100.934V8.52246H99.6724V13.0444L97.0928 8.52246ZM106.906 9.66943V8.52246H101.659V9.66943H103.605V15H104.968V9.66943H106.906ZM109.077 8.52246H107.701V12.5039C107.701 13.1924 107.808 13.7285 108.022 14.1123C108.423 14.8154 109.185 15.167 110.307 15.167C111.429 15.167 112.189 14.8154 112.588 14.1123C112.802 13.7285 112.909 13.1924 112.909 12.5039V8.52246H111.533V12.5039C111.533 12.9492 111.48 13.2744 111.375 13.4795C111.211 13.8428 110.855 14.0244 110.307 14.0244C109.756 14.0244 109.399 13.8428 109.235 13.4795C109.129 13.2744 109.077 12.9492 109.077 12.5039V8.52246ZM115.559 8.52246H114.227V15H115.559V12.8335L116.205 12.1699L118.204 15H119.944L117.154 11.1899L119.808 8.52246H118.059L115.559 11.1899V8.52246ZM124.589 8.52246H123.214V12.5039C123.214 13.1924 123.321 13.7285 123.535 14.1123C123.936 14.8154 124.698 15.167 125.82 15.167C126.942 15.167 127.702 14.8154 128.101 14.1123C128.314 13.7285 128.421 13.1924 128.421 12.5039V8.52246H127.046V12.5039C127.046 12.9492 126.993 13.2744 126.888 13.4795C126.724 13.8428 126.368 14.0244 125.82 14.0244C125.269 14.0244 124.912 13.8428 124.748 13.4795C124.642 13.2744 124.589 12.9492 124.589 12.5039V8.52246ZM130.346 9.19922C129.74 9.81152 129.437 10.6831 129.437 11.814C129.437 12.8599 129.703 13.6831 130.236 14.2837C130.77 14.8813 131.502 15.1802 132.434 15.1802C133.187 15.1802 133.803 14.959 134.284 14.5166C134.767 14.0742 135.067 13.5 135.185 12.7939H133.844C133.753 13.1279 133.639 13.3784 133.501 13.5454C133.252 13.856 132.891 14.0112 132.416 14.0112C131.953 14.0112 131.571 13.8311 131.269 13.4707C130.97 13.1074 130.821 12.5625 130.821 11.8359C130.821 11.1094 130.963 10.5483 131.247 10.1528C131.531 9.75439 131.919 9.55518 132.412 9.55518C132.895 9.55518 133.26 9.6958 133.506 9.97705C133.644 10.1353 133.756 10.3696 133.844 10.6802H135.198C135.177 10.2759 135.028 9.87305 134.75 9.47168C134.246 8.75684 133.449 8.39941 132.359 8.39941C131.544 8.39941 130.874 8.66602 130.346 9.19922ZM137.584 9.66943H141.012V8.52246H136.261V15H141.17V13.8354H137.584V12.1699H140.73V11.0449H137.584V9.66943ZM147.423 8.52246H146.017L144.598 13.4399L143.191 8.52246H141.746L143.934 15H145.213L147.423 8.52246ZM91.9072 23.6641C91.7871 23.5176 91.7065 23.2964 91.6655 23.0005H90.3735C90.3735 23.6743 90.6152 24.2046 91.0986 24.5913C91.582 24.9751 92.2456 25.167 93.0894 25.167C93.9155 25.167 94.5542 24.9722 95.0054 24.5825C95.4595 24.1899 95.6865 23.6978 95.6865 23.106C95.6865 22.5288 95.4932 22.0879 95.1064 21.7832C94.8574 21.5869 94.4883 21.4302 93.999 21.313L92.8828 21.0449C92.4521 20.9424 92.1709 20.853 92.0391 20.7769C91.834 20.6626 91.7314 20.4897 91.7314 20.2583C91.7314 20.0063 91.8354 19.8101 92.0435 19.6694C92.2515 19.5288 92.5298 19.4585 92.8784 19.4585C93.1919 19.4585 93.4541 19.5127 93.665 19.6211C93.9814 19.7852 94.1514 20.062 94.1748 20.4517H95.4756C95.4521 19.7632 95.1987 19.2388 94.7153 18.8784C94.2349 18.5151 93.6533 18.3335 92.9707 18.3335C92.1533 18.3335 91.5337 18.5254 91.1118 18.9092C90.6899 19.293 90.479 19.7749 90.479 20.355C90.479 20.9907 90.6973 21.458 91.1338 21.7568C91.3916 21.9355 91.8574 22.1011 92.5312 22.2534L93.2168 22.4072C93.6182 22.4951 93.9126 22.5962 94.1001 22.7104C94.2876 22.8276 94.3813 22.9932 94.3813 23.207C94.3813 23.5732 94.1924 23.8237 93.8145 23.9585C93.6152 24.0288 93.356 24.064 93.0366 24.064C92.5034 24.064 92.127 23.9307 91.9072 23.6641ZM101.395 19.6694V18.5225H96.1479V19.6694H98.0947V25H99.457V19.6694H101.395ZM103.566 18.5225H102.19V22.5039C102.19 23.1924 102.297 23.7285 102.511 24.1123C102.913 24.8154 103.674 25.167 104.796 25.167C105.918 25.167 106.679 24.8154 107.077 24.1123C107.291 23.7285 107.398 23.1924 107.398 22.5039V18.5225H106.022V22.5039C106.022 22.9492 105.97 23.2744 105.864 23.4795C105.7 23.8428 105.344 24.0244 104.796 24.0244C104.246 24.0244 103.888 23.8428 103.724 23.4795C103.619 23.2744 103.566 22.9492 103.566 22.5039V18.5225ZM110.008 23.875V19.6475H111.256C111.872 19.6475 112.282 19.8247 112.487 20.1792C112.695 20.5308 112.799 21.0361 112.799 21.6953C112.799 22.1729 112.73 22.5845 112.592 22.9302C112.34 23.5601 111.895 23.875 111.256 23.875H110.008ZM112.487 18.6631C112.22 18.5752 111.886 18.5283 111.485 18.5225H108.694V25H111.485C112.463 25 113.187 24.5972 113.656 23.7915C114.001 23.1938 114.174 22.4644 114.174 21.603C114.174 21.2632 114.133 20.9058 114.051 20.5308C113.969 20.1558 113.815 19.8071 113.59 19.4849C113.309 19.0864 112.941 18.8125 112.487 18.6631ZM116.561 19.6694H119.988V18.5225H115.238V25H120.146V23.8354H116.561V22.1699H119.707V21.0449H116.561V19.6694ZM122.599 18.5225H121.179V25H122.44V20.3989L125.086 25H126.439V18.5225H125.178V23.0444L122.599 18.5225ZM132.412 19.6694V18.5225H127.165V19.6694H129.111V25H130.474V19.6694H132.412ZM137.026 21.0757V19.6475H138.45C138.763 19.6475 139.021 19.6812 139.223 19.7485C139.458 19.8452 139.575 20.0444 139.575 20.3462C139.575 20.6187 139.485 20.8091 139.307 20.9175C139.131 21.0229 138.901 21.0757 138.617 21.0757H137.026ZM137.026 23.875V22.1479H138.639C138.92 22.1509 139.138 22.1875 139.293 22.2578C139.572 22.3838 139.711 22.6152 139.711 22.9521C139.711 23.3506 139.567 23.6201 139.28 23.7607C139.122 23.8369 138.901 23.875 138.617 23.875H137.026ZM140.568 19.2124C140.237 18.7642 139.674 18.5342 138.88 18.5225H135.734V25H138.669C139 25 139.307 24.9707 139.588 24.9121C139.872 24.8535 140.118 24.7451 140.326 24.5869C140.511 24.4492 140.665 24.2793 140.788 24.0771C140.981 23.7725 141.078 23.4282 141.078 23.0444C141.078 22.6724 140.993 22.356 140.823 22.0952C140.656 21.8345 140.407 21.644 140.076 21.5239C140.292 21.4126 140.457 21.2896 140.568 21.1548C140.767 20.9146 140.867 20.5967 140.867 20.2012C140.867 19.8174 140.767 19.4878 140.568 19.2124ZM143.569 21.3877V19.6475H145.143C145.436 19.6475 145.655 19.6855 145.802 19.7617C146.062 19.8965 146.193 20.1602 146.193 20.5527C146.193 20.916 146.058 21.1592 145.789 21.2822C145.636 21.3525 145.408 21.3877 145.103 21.3877H143.569ZM146.47 18.6895C146.227 18.5869 145.878 18.5312 145.424 18.5225H142.247V25H143.569V22.46H144.967C145.365 22.46 145.636 22.5288 145.78 22.6665C145.926 22.8042 146.002 23.0796 146.008 23.4927L146.017 24.0947C146.02 24.2852 146.039 24.4712 146.074 24.6528C146.092 24.7407 146.121 24.8564 146.162 25H147.652V24.8374C147.523 24.7583 147.441 24.6353 147.406 24.4683C147.382 24.3628 147.371 24.1621 147.371 23.8662V23.4312C147.371 22.9771 147.308 22.6401 147.182 22.4204C147.059 22.1978 146.848 22.0264 146.549 21.9062C146.906 21.7832 147.163 21.5737 147.318 21.2778C147.473 20.979 147.551 20.6758 147.551 20.3682C147.551 20.1133 147.51 19.8862 147.428 19.687C147.346 19.4878 147.234 19.3062 147.094 19.1421C146.924 18.9429 146.716 18.792 146.47 18.6895ZM152.134 22.5522H150.491L151.326 20.0034L152.134 22.5522ZM152.104 18.5225H150.574L148.263 25H149.678L150.126 23.6685H152.512L152.93 25H154.397L152.104 18.5225ZM156.621 18.5225H155.202V25H156.463V20.3989L159.108 25H160.462V18.5225H159.201V23.0444L156.621 18.5225ZM162.356 19.1992C161.75 19.8115 161.446 20.6831 161.446 21.814C161.446 22.8599 161.713 23.6831 162.246 24.2837C162.779 24.8813 163.512 25.1802 164.443 25.1802C165.196 25.1802 165.813 24.959 166.293 24.5166C166.777 24.0742 167.077 23.5 167.194 22.7939H165.854C165.763 23.1279 165.649 23.3784 165.511 23.5454C165.262 23.856 164.9 24.0112 164.426 24.0112C163.963 24.0112 163.581 23.8311 163.279 23.4707C162.98 23.1074 162.831 22.5625 162.831 21.8359C162.831 21.1094 162.973 20.5483 163.257 20.1528C163.541 19.7544 163.929 19.5552 164.421 19.5552C164.905 19.5552 165.27 19.6958 165.516 19.9771C165.653 20.1353 165.766 20.3696 165.854 20.6802H167.208C167.187 20.2759 167.038 19.873 166.759 19.4717C166.255 18.7568 165.458 18.3994 164.369 18.3994C163.554 18.3994 162.883 18.666 162.356 19.1992ZM168.223 18.5225V25H169.563V22.1084H172.094V25H173.439V18.5225H172.094V20.9922H169.563V18.5225H168.223ZM78.4063 24.5596V13.0947C78.4063 11.9805 78.3897 11.0439 78.3399 10.2527C78.2901 9.47758 78.1573 8.83168 77.9416 8.34724C77.7425 7.84667 77.3939 7.50752 76.9624 7.28148C76.5309 7.03924 75.9003 6.94263 75.1202 6.94263C74.556 6.94263 74.0083 7.03924 73.444 7.28148C72.8964 7.52373 72.2989 7.87896 71.6516 8.29879V24.5596H64.2995V13.0947C64.2995 11.9805 64.2829 11.0439 64.2331 10.2527C64.1667 9.47758 64.0671 8.83168 63.8514 8.34724C63.619 7.84667 63.3037 7.50752 62.8722 7.28148C62.4075 7.03924 61.7935 6.94263 61.0135 6.94263C60.3994 6.94263 59.8185 7.07156 59.2376 7.32993C58.6568 7.62053 58.0925 7.94353 57.5614 8.29879V24.5596H50.2093V1.64591H57.5614V4.18111C58.7564 3.1961 59.9015 2.40486 60.9637 1.83968C62.0092 1.29067 63.2041 0.999997 64.5484 0.999997C65.9757 0.999997 67.2536 1.339 68.3158 2.00116C69.4443 2.66323 70.2576 3.64823 70.8384 4.9885C72.2491 3.71284 73.5934 2.72777 74.8215 2.03345C76.0828 1.3391 77.3441 0.999997 78.622 0.999997C79.7174 0.999997 80.6966 1.19387 81.5762 1.51673C82.4392 1.87182 83.186 2.38869 83.7669 3.05077C84.4473 3.79357 84.9286 4.66552 85.2439 5.68285C85.5924 6.70015 85.7418 8.00812 85.7418 9.65521L85.7418 24.5596H78.4063Z" fill="#3792C1"/>
</svg>
