<svg width="86" height="49" viewBox="0 0 86 49" fill="none" xmlns="http://www.w3.org/2000/svg">
<path fill-rule="evenodd" clip-rule="evenodd" d="M13.3081 23.0961C13.722 22.7447 14.1689 22.3762 14.6654 21.9748V24.4685L22.0147 24.4688V8.28457C22.0147 5.5063 21.0878 3.41424 19.2174 2.04185C17.3635 0.702933 14.4337 0 10.3949 0C8.72313 0 7.10099 0.150682 5.47885 0.451886C3.85672 0.753132 2.69804 0.987401 1.96974 1.22177V6.96239H2.56563C3.69119 6.47704 4.81676 6.04185 5.95887 5.75736C7.11754 5.42278 8.11069 5.25526 8.98796 5.25526C10.908 5.25526 12.3316 5.5063 13.2916 6.00841C14.2351 6.49376 14.7317 7.41428 14.7317 8.70299V8.85335C12.5964 8.97054 10.6267 9.20477 8.77278 9.43913C6.95201 9.69021 5.36298 10.1421 4.03879 10.7781C2.7477 11.4141 1.75456 12.2843 1.0428 13.3722C0.347594 14.4433 0 15.8659 0 17.6568C0 19.8158 0.695201 21.5564 2.06905 22.979C3.42635 24.3681 5.1478 25.1045 7.21686 25.1045C8.34242 25.1045 9.20314 25.021 9.81559 24.8367C10.4611 24.7028 11.0736 24.4516 11.7357 24.1003C12.4143 23.7489 12.9275 23.4475 13.3081 23.0961ZM14.6654 13.322V18.2593C14.1358 18.7781 13.5399 19.213 12.8447 19.4808C12.1991 19.8157 11.537 19.9159 10.9411 19.9159C9.76593 19.9159 8.88865 19.7323 8.30931 19.3137C7.72998 18.8952 7.41548 18.1252 7.41548 17.0205C7.41548 16.2841 7.6141 15.6818 7.97827 15.2132C8.30931 14.7446 8.80589 14.41 9.45143 14.1923C10.1797 13.9078 10.9412 13.7568 11.686 13.6732C12.4309 13.5729 13.424 13.4557 14.6654 13.322ZM33.1636 24.3728C34.7989 24.8442 36.6365 25.1042 38.609 25.1042V25.1045C39.6543 25.1045 40.4804 25.0394 41.121 24.9254C41.2412 24.9035 41.3646 24.8821 41.4905 24.8604L41.4906 24.8604C42.0178 24.7692 42.5894 24.6703 43.1609 24.4866C43.7679 24.3405 44.3073 24.1453 44.8637 23.934C45.1437 23.8148 45.4037 23.7035 45.6454 23.6C45.8985 23.4917 46.1317 23.3918 46.3473 23.3003V17.1564H45.3863C45.1672 17.4002 44.8468 17.6766 44.4928 17.9691C44.1388 18.2942 43.7004 18.5703 43.1778 18.8628C42.6889 19.1391 42.082 19.3991 41.3907 19.6105C40.6658 19.7894 39.8229 19.903 38.8788 19.903C37.0074 19.903 35.5407 19.3342 34.428 18.2127C33.3153 17.0749 32.7421 15.3358 32.7421 13.044C32.7421 10.8822 33.2985 9.15935 34.3268 7.89155C35.3721 6.59126 36.8557 5.95736 38.7607 5.95736C39.6037 5.95736 40.3624 6.07103 41.0704 6.26618C41.1757 6.30357 41.2809 6.34008 41.3857 6.37644C41.9188 6.56137 42.4403 6.74227 42.8912 7.01385C43.4138 7.27391 43.8522 7.56663 44.3073 7.92406C44.7288 8.21662 45.1166 8.52547 45.3863 8.80176H46.3473V2.6416C45.0154 1.99146 43.7004 1.52007 42.3686 1.24379C41.0704 0.935126 39.7217 0.772428 38.4067 0.772428C36.6534 0.772428 34.9675 0.999985 33.3659 1.47134C31.7306 1.92646 30.3313 2.6416 29.1343 3.60057C27.8699 4.59204 26.9089 5.85981 26.184 7.40394C25.4422 8.98053 25.105 10.8172 25.105 13.044C25.105 15.0757 25.4253 16.8799 26.0997 18.3914C26.774 19.8868 27.7013 21.1383 28.9151 22.1623C30.129 23.1538 31.5451 23.8852 33.1636 24.3728ZM1.47656 36.5096V36.3602H0.197754V36.5096C0.197754 37.2713 0.341309 37.8734 0.628418 38.3158C0.915527 38.7552 1.47949 38.9749 2.32031 38.9749C3.16113 38.9749 3.74268 38.7025 4.06494 38.1576C4.25537 37.8353 4.35059 37.3988 4.35059 36.848V32.3392H2.99707V36.87C2.99707 37.1834 2.96631 37.4061 2.90479 37.5379C2.80225 37.7606 2.59131 37.8719 2.27197 37.8719C1.94971 37.8719 1.73877 37.7708 1.63916 37.5687C1.54248 37.3636 1.48828 37.0106 1.47656 36.5096ZM7.09277 32.3392H5.67334V38.8167H6.93457V34.2157L9.58008 38.8167H10.9336V32.3392H9.67236V36.8612L7.09277 32.3392ZM16.9058 33.4862V32.3392H11.6587V33.4862H13.6055V38.8167H14.9678V33.4862H16.9058ZM19.0767 32.3392H17.7012V36.3207C17.7012 37.0091 17.8081 37.5453 18.022 37.9291C18.4233 38.6322 19.1851 38.9837 20.3071 38.9837C21.4292 38.9837 22.1895 38.6322 22.5879 37.9291C22.8018 37.5453 22.9087 37.0091 22.9087 36.3207V32.3392H21.5332V36.3207C21.5332 36.766 21.4805 37.0912 21.375 37.2962C21.2109 37.6595 20.855 37.8412 20.3071 37.8412C19.7563 37.8412 19.3989 37.6595 19.2349 37.2962C19.1294 37.0912 19.0767 36.766 19.0767 36.3207V32.3392ZM25.5586 32.3392H24.2271V38.8167H25.5586V36.6502L26.2046 35.9867L28.2041 38.8167H29.9443L27.1538 35.0067L29.8081 32.3392H28.0591L25.5586 35.0067V32.3392ZM34.5894 32.3392H33.2139V36.3207C33.2139 37.0091 33.3208 37.5453 33.5347 37.9291C33.936 38.6322 34.6978 38.9837 35.8198 38.9837C36.9419 38.9837 37.7021 38.6322 38.1006 37.9291C38.3145 37.5453 38.4214 37.0091 38.4214 36.3207V32.3392H37.0459V36.3207C37.0459 36.766 36.9932 37.0912 36.8877 37.2962C36.7236 37.6595 36.3677 37.8412 35.8198 37.8412C35.269 37.8412 34.9116 37.6595 34.7476 37.2962C34.6421 37.0912 34.5894 36.766 34.5894 36.3207V32.3392ZM40.3462 33.016C39.7397 33.6283 39.4365 34.4999 39.4365 35.6307C39.4365 36.6766 39.7031 37.4999 40.2363 38.1004C40.7695 38.6981 41.502 38.9969 42.4336 38.9969C43.1865 38.9969 43.8032 38.7757 44.2837 38.3333C44.7671 37.891 45.0674 37.3167 45.1846 36.6107H43.8442C43.7534 36.9447 43.6392 37.1952 43.5015 37.3622C43.2524 37.6727 42.8906 37.828 42.416 37.828C41.9531 37.828 41.5708 37.6478 41.269 37.2874C40.9702 36.9242 40.8208 36.3792 40.8208 35.6527C40.8208 34.9261 40.9629 34.3651 41.2471 33.9696C41.5312 33.5711 41.9194 33.3719 42.4116 33.3719C42.895 33.3719 43.2598 33.5125 43.5059 33.7938C43.6436 33.952 43.7563 34.1864 43.8442 34.4969H45.1978C45.1772 34.0926 45.0278 33.6898 44.7495 33.2884C44.2456 32.5736 43.4487 32.2162 42.3589 32.2162C41.5444 32.2162 40.8735 32.4828 40.3462 33.016ZM47.584 33.4862H51.0117V32.3392H46.2612V38.8167H51.1699V37.6522H47.584V35.9867H50.7305V34.8617H47.584V33.4862ZM57.4233 32.3392H56.0171L54.5977 37.2567L53.1914 32.3392H51.7456L53.9341 38.8167H55.2129L57.4233 32.3392ZM1.90723 47.4808C1.78711 47.3343 1.70654 47.1131 1.66553 46.8172H0.373535C0.373535 47.4911 0.615234 48.0213 1.09863 48.4081C1.58203 48.7918 2.24561 48.9837 3.08936 48.9837C3.91553 48.9837 4.5542 48.7889 5.00537 48.3993C5.45947 48.0067 5.68652 47.5145 5.68652 46.9227C5.68652 46.3456 5.49316 45.9046 5.10645 45.5999C4.85742 45.4037 4.48828 45.2469 3.99902 45.1297L2.88281 44.8617C2.45215 44.7591 2.1709 44.6698 2.03906 44.5936C1.83398 44.4793 1.73145 44.3065 1.73145 44.075C1.73145 43.8231 1.83545 43.6268 2.04346 43.4862C2.25146 43.3456 2.52979 43.2752 2.87842 43.2752C3.19189 43.2752 3.4541 43.3294 3.66504 43.4378C3.98145 43.6019 4.15137 43.8788 4.1748 44.2684H5.47559C5.45215 43.5799 5.19873 43.0555 4.71533 42.6952C4.23486 42.3319 3.65332 42.1502 2.9707 42.1502C2.15332 42.1502 1.53369 42.3421 1.11182 42.7259C0.689941 43.1097 0.479004 43.5916 0.479004 44.1717C0.479004 44.8075 0.697266 45.2748 1.13379 45.5736C1.3916 45.7523 1.85742 45.9178 2.53125 46.0702L3.2168 46.224C3.61816 46.3119 3.9126 46.4129 4.1001 46.5272C4.2876 46.6444 4.38135 46.8099 4.38135 47.0238C4.38135 47.39 4.19238 47.6405 3.81445 47.7752C3.61523 47.8456 3.35596 47.8807 3.03662 47.8807C2.50342 47.8807 2.12695 47.7474 1.90723 47.4808ZM11.395 43.4862V42.3392H6.14795V43.4862H8.09473V48.8167H9.45703V43.4862H11.395ZM13.5659 42.3392H12.1904V46.3207C12.1904 47.0091 12.2974 47.5453 12.5112 47.9291C12.9126 48.6322 13.6743 48.9837 14.7964 48.9837C15.9185 48.9837 16.6787 48.6322 17.0771 47.9291C17.291 47.5453 17.3979 47.0091 17.3979 46.3207V42.3392H16.0225V46.3207C16.0225 46.766 15.9697 47.0912 15.8643 47.2962C15.7002 47.6595 15.3442 47.8412 14.7964 47.8412C14.2456 47.8412 13.8882 47.6595 13.7241 47.2962C13.6187 47.0912 13.5659 46.766 13.5659 46.3207V42.3392ZM20.0083 47.6917V43.4642H21.2563C21.8716 43.4642 22.2817 43.6415 22.4868 43.9959C22.6948 44.3475 22.7988 44.8529 22.7988 45.5121C22.7988 45.9896 22.73 46.4012 22.5923 46.7469C22.3403 47.3768 21.895 47.6917 21.2563 47.6917H20.0083ZM22.4868 42.4798C22.2202 42.3919 21.8862 42.3451 21.4849 42.3392H18.6943V48.8167H21.4849C22.4634 48.8167 23.187 48.4139 23.6558 47.6082C24.0015 47.0106 24.1743 46.2811 24.1743 45.4198C24.1743 45.0799 24.1333 44.7225 24.0513 44.3475C23.9692 43.9725 23.8154 43.6239 23.5898 43.3016C23.3086 42.9032 22.9409 42.6292 22.4868 42.4798ZM26.5605 43.4862H29.9883V42.3392H25.2378V48.8167H30.1465V47.6522H26.5605V45.9867H29.707V44.8617H26.5605V43.4862ZM32.5986 42.3392H31.1792V48.8167H32.4404V44.2157L35.0859 48.8167H36.4395V42.3392H35.1782V46.8612L32.5986 42.3392ZM42.4116 43.4862V42.3392H37.1646V43.4862H39.1113V48.8167H40.4736V43.4862H42.4116ZM47.0259 44.8924V43.4642H48.4497C48.7632 43.4642 49.021 43.4979 49.2231 43.5653C49.4575 43.662 49.5747 43.8612 49.5747 44.1629C49.5747 44.4354 49.4854 44.6258 49.3066 44.7342C49.1309 44.8397 48.9009 44.8924 48.6167 44.8924H47.0259ZM47.0259 47.6917V45.9647H48.6387C48.9199 45.9676 49.1382 46.0042 49.2935 46.0746C49.5718 46.2005 49.7109 46.432 49.7109 46.7689C49.7109 47.1673 49.5674 47.4369 49.2803 47.5775C49.1221 47.6537 48.9009 47.6917 48.6167 47.6917H47.0259ZM50.5679 43.0291C50.2368 42.5809 49.6743 42.3509 48.8804 42.3392H45.7339V48.8167H48.6694C49.0005 48.8167 49.3066 48.7874 49.5879 48.7289C49.8721 48.6703 50.1182 48.5619 50.3262 48.4037C50.5107 48.266 50.6646 48.096 50.7876 47.8939C50.981 47.5892 51.0776 47.245 51.0776 46.8612C51.0776 46.4891 50.9927 46.1727 50.8228 45.912C50.6558 45.6512 50.4067 45.4608 50.0757 45.3407C50.2925 45.2293 50.4565 45.1063 50.5679 44.9715C50.7671 44.7313 50.8667 44.4134 50.8667 44.0179C50.8667 43.6341 50.7671 43.3045 50.5679 43.0291ZM53.5693 45.2044V43.4642H55.1426C55.4355 43.4642 55.6553 43.5023 55.8018 43.5785C56.0625 43.7132 56.1929 43.9769 56.1929 44.3695C56.1929 44.7328 56.0581 44.9759 55.7886 45.099C55.6362 45.1693 55.4077 45.2044 55.103 45.2044H53.5693ZM56.4697 42.5062C56.2266 42.4037 55.8779 42.348 55.4238 42.3392H52.2466V48.8167H53.5693V46.2767H54.9668C55.3652 46.2767 55.6362 46.3456 55.7798 46.4832C55.9263 46.6209 56.0024 46.8963 56.0083 47.3094L56.0171 47.9115C56.02 48.1019 56.0391 48.2879 56.0742 48.4696C56.0918 48.5575 56.1211 48.6732 56.1621 48.8167H57.6519V48.6541C57.5229 48.575 57.4409 48.452 57.4058 48.285C57.3823 48.1795 57.3706 47.9789 57.3706 47.683V47.2479C57.3706 46.7938 57.3076 46.4569 57.1816 46.2372C57.0586 46.0145 56.8477 45.8431 56.5488 45.723C56.9062 45.5999 57.1626 45.3905 57.3179 45.0946C57.4731 44.7957 57.5508 44.4925 57.5508 44.1849C57.5508 43.93 57.5098 43.703 57.4277 43.5038C57.3457 43.3045 57.2344 43.1229 57.0938 42.9588C56.9238 42.7596 56.7158 42.6087 56.4697 42.5062ZM62.1343 46.369H60.4907L61.3257 43.8202L62.1343 46.369ZM62.1035 42.3392H60.5742L58.2627 48.8167H59.6777L60.126 47.4852H62.5122L62.9297 48.8167H64.3975L62.1035 42.3392ZM66.6211 42.3392H65.2017V48.8167H66.4629V44.2157L69.1084 48.8167H70.4619V42.3392H69.2007V46.8612L66.6211 42.3392ZM72.356 43.016C71.7495 43.6283 71.4463 44.4999 71.4463 45.6307C71.4463 46.6766 71.7129 47.4999 72.2461 48.1004C72.7793 48.6981 73.5117 48.9969 74.4434 48.9969C75.1963 48.9969 75.813 48.7757 76.2935 48.3333C76.7769 47.891 77.0771 47.3167 77.1943 46.6107H75.854C75.7632 46.9447 75.6489 47.1952 75.5112 47.3622C75.2622 47.6727 74.9004 47.828 74.4258 47.828C73.9629 47.828 73.5806 47.6478 73.2788 47.2874C72.98 46.9242 72.8306 46.3792 72.8306 45.6527C72.8306 44.9261 72.9727 44.3651 73.2568 43.9696C73.541 43.5711 73.9292 43.3719 74.4214 43.3719C74.9048 43.3719 75.2695 43.5125 75.5156 43.7938C75.6533 43.952 75.7661 44.1864 75.854 44.4969H77.2075C77.187 44.0926 77.0376 43.6898 76.7593 43.2884C76.2554 42.5736 75.4585 42.2162 74.3687 42.2162C73.5542 42.2162 72.8833 42.4828 72.356 43.016ZM78.2227 42.3392V48.8167H79.563V45.9251H82.0942V48.8167H83.439V42.3392H82.0942V44.8089H79.563V42.3392H78.2227ZM78.4063 24.332V12.8671C78.4063 11.7529 78.3897 10.8163 78.3399 10.0251C78.2901 9.25001 78.1573 8.60411 77.9416 8.11967C77.7425 7.6191 77.3939 7.27995 76.9624 7.05391C76.5309 6.81167 75.9003 6.71506 75.1202 6.71506C74.556 6.71506 74.0083 6.81167 73.444 7.05391C72.8964 7.29616 72.2989 7.65139 71.6516 8.07122V24.332H64.2995V12.8671C64.2995 11.7529 64.2829 10.8163 64.2331 10.0251C64.1667 9.25001 64.0671 8.60411 63.8514 8.11967C63.619 7.6191 63.3037 7.27995 62.8722 7.05391C62.4075 6.81167 61.7935 6.71506 61.0135 6.71506C60.3994 6.71506 59.8185 6.84399 59.2376 7.10236C58.6568 7.39296 58.0925 7.71596 57.5614 8.07122V24.332H50.2093V1.41834H57.5614V3.95354C58.7564 2.96853 59.9015 2.17729 60.9637 1.61211C62.0092 1.0631 63.2041 0.772428 64.5484 0.772428C65.9757 0.772428 67.2536 1.11143 68.3158 1.77359C69.4443 2.43566 70.2576 3.42066 70.8384 4.76093C72.2491 3.48527 73.5934 2.5002 74.8215 1.80589C76.0828 1.11153 77.3441 0.772428 78.622 0.772428C79.7174 0.772428 80.6966 0.966304 81.5762 1.28916C82.4392 1.64425 83.186 2.16112 83.7669 2.8232C84.4473 3.566 84.9286 4.43795 85.2439 5.45528C85.5924 6.47258 85.7418 7.78055 85.7418 9.42764L85.7418 24.332H78.4063Z" fill="#3792C1"/>
</svg>
